<svg xmlns="http://www.w3.org/2000/svg" width="32" height="32" viewBox="0 0 32 32">
    <g fill="#202020" fill-rule="evenodd">
        <path d="M3 30h16V2H3v28zM26.949.684l-1.898.632L29 13.162V24c0 1.103-.897 2-2 2s-2-.897-2-2V11c0-2.206-1.794-4-4-4V2a2 2 0 0 0-2-2H3a2 2 0 0 0-2 2v28a2 2 0 0 0 2 2h16a2 2 0 0 0 2-2V9c1.103 0 2 .897 2 2v13c0 2.206 1.794 4 4 4s4-1.794 4-4V12.838L26.949.684z"/>
        <path d="M7 10h8V6H7v4zm0 2h8a2 2 0 0 0 2-2V6a2 2 0 0 0-2-2H7a2 2 0 0 0-2 2v4a2 2 0 0 0 2 2z"/>
    </g>
</svg>
