<svg xmlns="http://www.w3.org/2000/svg" width="32" height="32" viewBox="0 0 32 32">
    <g fill="#202020" fill-rule="evenodd">
        <path d="M22.961 8.385C22.985 8.26 23 8.132 23 8V2c0-1.103-.897-2-2-2H3C1.897 0 1 .897 1 2v6c0 .747.417 1.393 1.026 1.736C2.015 9.823 2 9.91 2 10v6c-1.103 0-2 .897-2 2v6c0 1.103.897 2 2 2h7.623c2.079 3.581 5.946 6 10.377 6 6.617 0 12-5.383 12-12 0-5.594-3.852-10.291-9.039-11.615zM3 2h18l-.003 6H3V2zm1 8h9.381A12.048 12.048 0 0 0 8.7 16H4v-6zM2 24v-6h6.181A11.88 11.88 0 0 0 8 20c0 1.404.255 2.747.7 4H2zm18 6c-5.514 0-10-4.486-10-10s4.486-10 10-10 10 4.486 10 10-4.486 10-10 10z"/>
        <path d="M20 13c-3.859 0-7 3.141-7 7s3.141 7 7 7 7-3.141 7-7-3.141-7-7-7zm0 12c-2.757 0-5-2.243-5-5s2.243-5 5-5 5 2.243 5 5-2.243 5-5 5zM5 3h2v4H5zM6 11h2v4H6zM4 19h2v4H4zM9 3h2v4H9zM13 3h2v4h-2zM17 3h2v4h-2z"/>
    </g>
</svg>
