<svg xmlns="http://www.w3.org/2000/svg" width="32" height="32" viewBox="0 0 32 32">
    <g fill="#202020" fill-rule="evenodd">
        <path d="M7.072 5.628l1.857.743 2-5L9.072.628zM15 6h2.001V0H15zM21.071 1.371l2.001 5 1.856-.743-1.999-5zM26 30h2v-2h-2v2zM4 30h2v-2H4v2zm4.618-20h14.764l3 6H5.618l3-6zm19.383 16H4v-3.819l4.835.805.33-1.972L4 20.153V18h24v2.153l-5.165.861.33 1.972 4.836-.806V26zM30 18c0-.862-.551-1.592-1.318-1.873l-3.511-7.022A1.99 1.99 0 0 0 23.382 8H8.618a1.99 1.99 0 0 0-1.789 1.105l-3.511 7.022A1.998 1.998 0 0 0 2 18v8c0 .366.106.705.278 1H2v3c0 1.103.897 2 2 2h2c1.103 0 2-.897 2-2v-2h16v2c0 1.103.897 2 2 2h2c1.103 0 2-.897 2-2v-3h-.278c.172-.295.278-.634.278-1v-8z"/>
    </g>
</svg>
