<svg width="32" height="32" viewBox="0 0 32 32" fill="none" xmlns="http://www.w3.org/2000/svg">
<g clip-path="url(#clip0)">
<path fill-rule="evenodd" clip-rule="evenodd" d="M29.8969 10H9.93492L9.35692 10.998C9.00522 11.6048 8.50075 12.1088 7.89371 12.4601C7.28668 12.8113 6.59825 12.9975 5.89692 13C4.88692 13 3.95692 12.627 3.24892 12H4.72592L5.31092 11.414L6.31093 10.414L7.72592 9L6.31093 7.586L5.31092 6.586L4.72592 6H3.24892C3.95692 5.373 4.88692 5 5.89692 5C7.31592 5 8.64192 5.767 9.35692 7.002L9.93492 8H29.8969V10ZM29.8969 6H11.0879C10.4716 4.93056 9.54012 4.07753 8.4207 3.55752C7.30128 3.03751 6.04859 2.87588 4.83384 3.09474C3.61909 3.31359 2.50156 3.90224 1.63401 4.78024C0.766465 5.65823 0.191226 6.78272 -0.0130758 8H3.89692L4.89692 9L3.89692 10H-0.0130758C-0.0130758 11.4142 0.871103 12.5112 1.63401 13.2198C2.39692 13.9284 3.001 14.5 4.83 14.8888C5.60571 15.0538 7.24656 15.1271 8.4207 14.5C9.35692 14 10.8969 13 11.0879 12H29.8969C30.4274 12 30.9361 11.7893 31.3111 11.4142C31.6862 11.0391 31.8969 10.5304 31.8969 10V8C31.8969 7.46957 31.6862 6.96086 31.3111 6.58579C30.9361 6.21071 30.4274 6 29.8969 6ZM25.8969 25.266L29.8969 25.766V26.235L25.8969 26.735V25.265V25.266ZM1.89692 27H9.89692V25H1.89692V27ZM23.8969 25H11.8969C11.8969 24.4696 11.6862 23.9609 11.3111 23.5858C10.9361 23.2107 10.4274 23 9.89692 23H1.89692C1.36649 23 0.857783 23.2107 0.482711 23.5858C0.107638 23.9609 -0.103076 24.4696 -0.103076 25V27C-0.103076 27.5304 0.107638 28.0391 0.482711 28.4142C0.857783 28.7893 1.36649 29 1.89692 29H9.89692C10.4274 29 10.9361 28.7893 11.3111 28.4142C11.6862 28.0391 11.8969 27.5304 11.8969 27H23.8969V29L31.8969 28V24L23.8969 23V25Z" fill="#202020"/>
</g>
<defs>
<clipPath id="clip0">
<rect width="32" height="32" fill="white"/>
</clipPath>
</defs>
</svg>
