<svg width="24" height="24" viewBox="0 0 24 24" fill="none" xmlns="http://www.w3.org/2000/svg">
<path fill-rule="evenodd" clip-rule="evenodd" d="M4.21799 4.09202C4 4.51984 4 5.0799 4 6.2V21H14V6.2C14 5.0799 14 4.51984 13.782 4.09202C13.5903 3.71569 13.2843 3.40973 12.908 3.21799C12.4802 3 11.9201 3 10.8 3H7.2C6.0799 3 5.51984 3 5.09202 3.21799C4.71569 3.40973 4.40973 3.71569 4.21799 4.09202ZM6.08175 5.40951C6 5.56994 6 5.77996 6 6.2V8.8C6 9.22004 6 9.43006 6.08175 9.59049C6.15365 9.73161 6.26839 9.84635 6.40951 9.91825C6.56994 10 6.77996 10 7.2 10H10.8C11.22 10 11.4301 10 11.5905 9.91825C11.7316 9.84635 11.8463 9.73161 11.9183 9.59049C12 9.43006 12 9.22004 12 8.8V6.2C12 5.77996 12 5.56994 11.9183 5.40951C11.8463 5.26839 11.7316 5.15365 11.5905 5.08175C11.4301 5 11.22 5 10.8 5H7.2C6.77996 5 6.56994 5 6.40951 5.08175C6.26839 5.15365 6.15365 5.26839 6.08175 5.40951Z" fill="#242626"/>
<path d="M14 14V14C14.6989 14 15.0484 14 15.324 14.1142C15.6916 14.2664 15.9836 14.5584 16.1358 14.926C16.25 15.2016 16.25 15.5511 16.25 16.25V18.5C16.25 19.3284 16.9216 20 17.75 20V20C18.5784 20 19.25 19.3284 19.25 18.5V9.32548C19.25 8.8363 19.25 8.59171 19.1947 8.36154C19.1457 8.15746 19.0649 7.96237 18.9553 7.78343C18.8316 7.5816 18.6586 7.40865 18.3127 7.06274L15.75 4.5" stroke="#242626" stroke-width="1.5"/>
<g filter="url(#filter0_d)">
<path d="M15 3.84722C15 3.26828 15 2.97881 15.1779 2.89956C15.3559 2.82031 15.5711 3.01395 16.0014 3.40124L19.669 6.70207C19.832 6.84879 19.9135 6.92215 19.9567 7.01926C20 7.11637 20 7.22604 20 7.44536V9L15.7506 5.60049C15.3818 5.30544 15.1974 5.15791 15.0987 4.95256C15 4.74721 15 4.51106 15 4.03875V3.84722Z" fill="#242626"/>
</g>
<path d="M16.5 5.5V8.67452C16.5 9.1637 16.5 9.40829 16.5553 9.63846C16.6043 9.84254 16.6851 10.0376 16.7947 10.2166C16.9184 10.4184 17.0914 10.5914 17.4373 10.9373L19 12.5" stroke="#242626"/>
<defs>
<filter id="filter0_d" x="11" y="2.88208" width="13" height="14.118" filterUnits="userSpaceOnUse" color-interpolation-filters="sRGB">
<feFlood flood-opacity="0" result="BackgroundImageFix"/>
<feColorMatrix in="SourceAlpha" type="matrix" values="0 0 0 0 0 0 0 0 0 0 0 0 0 0 0 0 0 0 127 0"/>
<feOffset dy="4"/>
<feGaussianBlur stdDeviation="2"/>
<feColorMatrix type="matrix" values="0 0 0 0 0 0 0 0 0 0 0 0 0 0 0 0 0 0 0.25 0"/>
<feBlend mode="normal" in2="BackgroundImageFix" result="effect1_dropShadow"/>
<feBlend mode="normal" in="SourceGraphic" in2="effect1_dropShadow" result="shape"/>
</filter>
</defs>
</svg>