<svg width="24" height="24" viewBox="0 0 24 24" fill="none" xmlns="http://www.w3.org/2000/svg">
    <path d="M23 12C23 10.1472 22.532 8.32436 21.6394 6.70071C20.7468 5.07706 19.4585 3.70519 17.8941 2.71239L16.0698 5.58702C17.15 6.27253 18.0395 7.21979 18.6559 8.3409C19.2722 9.46201 19.5954 10.7206 19.5954 12H23Z" fill="#242626"/>
    <path fill-rule="evenodd" clip-rule="evenodd" d="M12 19C15.866 19 19 15.866 19 12C19 8.13401 15.866 5 12 5C8.13401 5 5 8.13401 5 12C5 15.866 8.13401 19 12 19ZM10.9322 9.06355C11.2566 8.94549 11.4238 8.58684 11.3058 8.26248C11.1877 7.93812 10.8291 7.77088 10.5047 7.88894C10.1803 8.00699 10.0131 8.36565 10.1312 8.69001C10.2492 9.01437 10.6079 9.18161 10.9322 9.06355ZM12 14C13.1046 14 14 13.1046 14 12C14 10.8954 13.1046 10 12 10C10.8954 10 10 10.8954 10 12C10 13.1046 10.8954 14 12 14ZM15.538 9.47543C15.6561 9.79979 15.4889 10.1584 15.1645 10.2765C14.8401 10.3946 14.4815 10.2273 14.3634 9.90296C14.2454 9.5786 14.4126 9.21994 14.737 9.10189C15.0613 8.98383 15.42 9.15107 15.538 9.47543ZM15.3206 14.6896C15.645 14.5715 15.8122 14.2129 15.6942 13.8885C15.5761 13.5642 15.2175 13.3969 14.8931 13.515C14.5688 13.633 14.4015 13.9917 14.5196 14.316C14.6376 14.6404 14.9963 14.8077 15.3206 14.6896ZM11.5604 15.3931C11.6785 15.7175 11.5112 16.0761 11.1869 16.1942C10.8625 16.3122 10.5038 16.145 10.3858 15.8206C10.2677 15.4963 10.435 15.1376 10.7593 15.0196C11.0837 14.9015 11.4423 15.0687 11.5604 15.3931ZM8.46979 12.7132C8.79415 12.5951 8.9614 12.2365 8.84334 11.9121C8.72528 11.5877 8.36663 11.4205 8.04227 11.5386C7.71791 11.6566 7.55066 12.0153 7.66872 12.3396C7.78678 12.664 8.14543 12.8312 8.46979 12.7132Z" fill="#242626"/>
</svg>
