<svg width="24" height="24" viewBox="0 0 24 24" fill="none" xmlns="http://www.w3.org/2000/svg">
<path d="M3.5983 8.82382C3.84222 8.26279 4.3957 7.8999 5.00746 7.8999H18.9925C19.6043 7.8999 20.1578 8.26279 20.4017 8.82382V8.82382C21.4211 11.1685 21.4211 13.8313 20.4017 16.176V16.176C20.1578 16.737 19.6043 17.0999 18.9925 17.0999H5.00746C4.3957 17.0999 3.84222 16.737 3.5983 16.176V16.176C2.57886 13.8313 2.57886 11.1685 3.5983 8.82382V8.82382Z" stroke="#242626" stroke-width="1.8" stroke-linejoin="round"/>
<rect x="1" y="11" width="2" height="2" rx="1" fill="#242626"/>
<rect x="21" y="11" width="2" height="2" rx="1" fill="#242626"/>
<rect x="6" y="6.5" width="1.8" height="12" rx="0.75" fill="#242626"/>
<rect x="16" y="6.5" width="1.8" height="12" rx="0.75" fill="#242626"/>
<circle cx="17" cy="8" r="3" fill="#242626"/>
<circle cx="17" cy="8" r="1.5" fill="white"/>
</svg>