<svg width="20" height="20" viewBox="0 0 20 20" fill="none" xmlns="http://www.w3.org/2000/svg">
    <circle cx="10" cy="10" r="10" fill="#242626"/>
    <path d="M10.9615 14.592L10.7215 8.82H9.26945L9.04145 14.592H10.9615ZM10.0015 5.916C9.83345 5.916 9.67345 5.948 9.52145 6.012C9.37745 6.076 9.24945 6.16 9.13745 6.264C9.02545 6.376 8.93745 6.5 8.87345 6.636C8.80945 6.78 8.77745 6.932 8.77745 7.092C8.77745 7.252 8.80945 7.4 8.87345 7.536C8.93745 7.68 9.02545 7.804 9.13745 7.908C9.24945 8.02 9.37745 8.104 9.52145 8.16C9.67345 8.224 9.83345 8.256 10.0015 8.256C10.1695 8.256 10.3255 8.224 10.4695 8.16C10.6215 8.104 10.7495 8.02 10.8535 7.908C10.9655 7.804 11.0535 7.68 11.1175 7.536C11.1815 7.4 11.2135 7.252 11.2135 7.092C11.2135 6.932 11.1815 6.78 11.1175 6.636C11.0535 6.5 10.9655 6.376 10.8535 6.264C10.7495 6.16 10.6215 6.076 10.4695 6.012C10.3255 5.948 10.1695 5.916 10.0015 5.916Z" fill="white"/>
</svg>
