<svg width="24" height="24" viewBox="0 0 24 24" fill="none" xmlns="http://www.w3.org/2000/svg">
<path d="M10 12H6.80217C6.41761 12 6.22532 12 6.08822 12.11C5.95112 12.22 5.90941 12.4077 5.82598 12.7831L4.54086 18.5661C4.29118 19.6897 4.16634 20.2515 4.46657 20.6257C4.76681 21 5.34228 21 6.49323 21H17.5068C18.6577 21 19.2332 21 19.5334 20.6257C19.8337 20.2515 19.7088 19.6897 19.4591 18.5661L18.174 12.7831C18.0906 12.4077 18.0489 12.22 17.9118 12.11C17.7747 12 17.5824 12 17.1978 12H14" stroke="#242626" stroke-width="2"/>
<rect x="14" y="16" width="2" height="2" rx="1" fill="#242626"/>
<rect x="11" y="4" width="2" height="14" rx="1" fill="#242626"/>
<rect x="5" y="3" width="14" height="4" rx="1" fill="#242626" stroke="#242626" stroke-width="2"/>
</svg>