<svg width="23" height="22" viewBox="0 0 23 22" fill="none" xmlns="http://www.w3.org/2000/svg">
<path fill-rule="evenodd" clip-rule="evenodd" d="M7.49267 14.16C7.12307 14.16 6.82002 14.4629 6.82002 14.8324V16.0009C6.82002 16.3694 7.12307 16.6724 7.49267 16.6724H14.8001C15.1697 16.6724 15.4718 16.3694 15.4718 16.0009V14.8324C15.4718 14.4629 15.1697 14.16 14.8001 14.16H7.49267ZM18.2964 13.8067C17.4008 13.8067 16.6741 14.5321 16.6741 15.4274C16.6741 16.3236 17.4008 17.049 18.2964 17.049C19.1921 17.049 19.9187 16.3236 19.9187 15.4274C19.9187 14.5321 19.1921 13.8067 18.2964 13.8067ZM3.92079 13.8067C3.02602 13.8067 2.29852 14.5321 2.29852 15.4274C2.29852 16.3236 3.02602 17.049 3.92079 17.049C4.81646 17.049 5.54306 16.3236 5.54306 15.4274C5.54306 14.5321 4.81646 13.8067 3.92079 13.8067ZM12.5097 7.22876H5.96212L5.92345 7.22696C5.65097 7.20359 5.44684 7.23236 5.30746 7.31056C5.19775 7.37169 5.11771 7.47775 5.06915 7.62876L4.42618 10.2553L4.37492 10.462H18.2254L17.5311 7.62876C17.4817 7.47775 17.4026 7.37169 17.2928 7.31056C17.1535 7.23236 16.9484 7.20359 16.6768 7.22696L16.6373 7.22876H12.5097ZM20.3719 19.4966V21.1829C20.3719 21.6333 20.0041 22 19.5536 22H17.7991C17.3495 22 16.9808 21.6333 16.9808 21.1829V19.4966H5.58263V21.1829C5.58263 21.6333 5.21393 22 4.7643 22H3.01074C2.5593 22 2.1924 21.6333 2.1924 21.1829V19.4966H1.86957C1.23379 17.3915 1.1016 15.2872 1.86957 13.1829L3.07548 11.1398L2.3219 10.6391H0.437942C0.197838 10.6391 0 10.4413 0 10.2004V9.17843C0 8.93753 0.197838 8.73978 0.437942 8.73978H2.6888C2.9298 8.73978 3.12674 8.93753 3.12674 9.17843V10.0881L3.38393 10.4989L4.14381 7.39506L4.1519 7.36899C4.2742 6.9636 4.50441 6.66607 4.84433 6.47551C5.14829 6.30562 5.52688 6.23731 5.97921 6.27146H16.6211C17.0734 6.23731 17.4511 6.30562 17.7569 6.47551C18.0959 6.66607 18.3252 6.9636 18.4484 7.36899L18.4565 7.39506L19.2299 10.5537L19.5203 10.0881V9.17843C19.5203 8.93753 19.7182 8.73978 19.9592 8.73978H22.2091C22.4501 8.73978 22.6471 8.93753 22.6471 9.17843V10.2004C22.6471 10.4413 22.4501 10.6391 22.2091 10.6391H20.3252L19.4709 11.2072L20.702 13.1829C21.5473 15.3321 21.3395 17.4265 20.702 19.4966H20.3719ZM7.26335 0H9.75881V2.49618H12.2543V0H14.7506V2.49618H17.2461V4.99057H14.7506V2.49618H12.2543V4.99057H9.75881V2.49618H7.26335V4.99057H4.767V2.49618H7.26335V0Z" fill="#242626"/>
</svg>
