<svg width="24" height="24" viewBox="0 0 24 24" fill="none" xmlns="http://www.w3.org/2000/svg">
<path fill-rule="evenodd" clip-rule="evenodd" d="M9 9H10.5C9.17837 9.79988 8.62424 11.3675 8.4867 12.325H5C5.40853 10.3623 6.92185 9 9 9ZM9 8H15C17.3472 8 19.238 9.54826 19.8857 11.6855H22V12.5647L20.2866 13.1466L20.8988 14C21.0465 14.2322 21 14.5 21 15H17H7H3C3 14.5 2.96134 14.2267 3.11012 14L3.72217 13.1469L2 12.5647V11.6855H4.11049C4.76404 9.55258 6.65401 8 9 8ZM3 16V22.5H5.5L7.5 21H12H16.5L18.5 22.5H21V16L17.1339 16.8917L16.8845 17.9734C16.6536 18.7727 15.8188 19.3322 14.8508 19.3322H9.13143C8.19005 19.3322 7.36411 18.7993 7.10657 18.0267L6.85389 16.899L3 16ZM9.94697 15.8313L7.6094 15.8486L8.03907 17.7602C8.18117 18.1066 8.62522 18.3641 9.13143 18.3641H14.8508C15.3659 18.3641 15.8366 18.0888 15.952 17.7247L16.3872 15.8508L9.94697 15.8313Z" fill="#242626"/>
<path d="M14 4.33333C14 5.25381 13.1046 6 12 6C10.8954 6 10 5.25381 10 4.33333C10 2.84225 11.6008 1.35116 11.9381 1.05354C11.9743 1.0216 12.0257 1.0216 12.0619 1.05354C12.3992 1.35116 14 2.84225 14 4.33333Z" fill="#242626"/>
<path d="M20 4.33333C20 5.25381 19.1046 6 18 6C16.8954 6 16 5.25381 16 4.33333C16 2.84225 17.6008 1.35116 17.9381 1.05354C17.9743 1.0216 18.0257 1.0216 18.0619 1.05354C18.3992 1.35116 20 2.84225 20 4.33333Z" fill="#242626"/>
<path d="M8 4.33333C8 5.25381 7.10457 6 6 6C4.89543 6 4 5.25381 4 4.33333C4 2.84225 5.6008 1.35116 5.93809 1.05354C5.97428 1.0216 6.02572 1.0216 6.06191 1.05354C6.3992 1.35116 8 2.84225 8 4.33333Z" fill="#242626"/>
</svg>
