<svg version="1" xmlns="http://www.w3.org/2000/svg" width="512" height="513" viewBox="0 0 5120 5130"><path d="M2498 5120c-95-16-182-83-234-180-15-28-19-56-19-140 0-122 15-162 91-236 65-63 137-87 244-82 101 5 150 27 217 96 43 44 47 46 96 43 94-4 280-31 396-57 421-94 697-284 805-554 60-149 59-134 63-1010 6-1039-3-1178-87-1430-35-107-145-319-217-419-87-121-243-277-364-364-106-76-316-183-431-221-181-59-267-71-498-71-188 0-228 3-318 23-154 34-243 66-387 138-165 81-292 172-419 300-128 127-219 254-300 419-105 212-150 377-166 618-5 78-10 490-10 915v773l-372-3c-367-3-374-3-416-26-55-29-115-89-144-144l-23-43V2295l23-43c29-55 90-115 144-144 36-18 64-23 173-28l130-5 6-125c22-422 184-843 456-1180 73-90 233-249 323-321 286-229 642-381 1012-434 135-19 441-19 576 0 461 66 869 271 1194 601 117 118 180 196 265 326 202 307 332 716 333 1045v91l133 4c113 3 138 7 175 26 55 29 115 89 144 144l23 43v1170l-23 43c-29 55-89 115-144 144-40 21-59 23-253 28l-210 5-6 100c-22 347-182 632-471 838-240 171-616 287-1057 326-79 8-107 14-114 26-57 103-208 167-339 145z"/></svg>
