<svg xmlns="http://www.w3.org/2000/svg" width="16" height="16" viewBox="0 0 16 16">
    <g fill="#202020" fill-rule="evenodd">
        <path d="M9 8.277V2H7v6.277c-.595.347-1 .984-1 1.723 0 .738.405 1.376 1 1.722V14h2v-2.278c.595-.346 1-.984 1-1.722 0-.739-.405-1.376-1-1.723M15 6c0-.738-.405-1.376-1-1.723V2h-2v2.277c-.595.347-1 .985-1 1.723 0 .738.405 1.376 1 1.723V14h2V7.723c.595-.347 1-.985 1-1.723M4 4.277V2H2v2.277C1.405 4.624 1 5.261 1 6c0 .738.405 1.376 1 1.722V14h2V7.722C4.595 7.376 5 6.738 5 6c0-.739-.405-1.376-1-1.723"/>
    </g>
</svg>
