<svg width="17" height="17" viewBox="0 0 17 17" fill="none" xmlns="http://www.w3.org/2000/svg">
<path fill-rule="evenodd" clip-rule="evenodd" d="M10.6388 11.1369C10.6388 11.6328 11.024 12.0339 11.499 12.0339C11.974 12.0339 12.3593 11.6328 12.3593 11.1369C12.3593 10.6416 11.974 10.2399 11.499 10.2399C11.024 10.2399 10.6388 10.6416 10.6388 11.1369ZM14.7534 4.42311L12.113 0.417969L5.793 4.42311H14.7534ZM16.3037 5.65392L1.79656 5.65335C1.81955 3.09415 3.7573 3.06219 3.78028 3.06219H5.19543L7.32197 1.86619H3.78028C2.4423 1.86619 0.325054 2.89614 0.305901 5.65335H0.303711V14.624C0.303711 15.6145 1.07422 16.418 2.02421 16.418H14.5832C15.5332 16.418 16.3037 15.6145 16.3037 14.624V13.2282H10.6026C9.96949 13.2282 9.45564 12.6924 9.45564 12.0322V10.2422C9.45564 9.58144 9.96949 9.04621 10.6026 9.04621H16.3037V5.65392Z" fill="#242626"/>
</svg>
