<svg width="19" height="24" viewBox="0 0 19 24" fill="none" xmlns="http://www.w3.org/2000/svg">
<path d="M5.88818 12.7261L10.9703 14.5758L8.19568 22.1989L6.11707 20.0036L3.11359 20.3492L5.88818 12.7261Z" fill="#242626"/>
<path d="M7.8457 16.377L12.9278 14.5272L15.7024 22.1504L12.6989 21.8047L10.6203 24.0001L7.8457 16.377Z" fill="#F8F8F9"/>
<path d="M9.46444 0L11.0893 1.29577L13.0863 0.720438L14.0916 2.53937L16.1568 2.77207L16.3895 4.83726L18.2084 5.84256L17.6331 7.83959L18.9289 9.46444L17.6331 11.0893L18.2084 13.0863L16.3895 14.0916L16.1568 16.1568L14.0916 16.3895L13.0863 18.2084L11.0893 17.6331L9.46444 18.9289L7.83959 17.6331L5.84255 18.2084L4.83726 16.3895L2.77207 16.1568L2.53937 14.0916L0.720437 13.0863L1.29577 11.0893L0 9.46444L1.29577 7.83959L0.720437 5.84256L2.53937 4.83726L2.77207 2.77207L4.83726 2.53937L5.84255 0.720438L7.83959 1.29577L9.46444 0Z" fill="#FFDD33"/>
<path d="M7.77444 12.8445L13.5207 7.09828L12.5067 6.08423L7.77444 10.8164L6.08436 9.12637L5.07031 10.1404L7.77444 12.8445Z" fill="#242626"/>
</svg>
