<svg width="16" height="16" viewBox="0 0 16 16" fill="none" xmlns="http://www.w3.org/2000/svg">
<path fill-rule="evenodd" clip-rule="evenodd" d="M0 7.99987L7.3 0.69987C7.62642 0.373447 7.78964 0.210235 7.99211 0.207039H8.00789C8.21037 0.210235 8.37358 0.373447 8.7 0.69987C9.02642 1.02629 9.18964 1.1895 9.19283 1.39198V1.40776C9.18964 1.61024 9.02642 1.77345 8.7 2.09987L3.8 6.99988H15C15.4714 6.99988 15.7071 6.99988 15.8535 7.14632C16 7.29277 16 7.52847 16 7.99988C16 8.47128 16 8.70698 15.8535 8.85343C15.7071 8.99988 15.4714 8.99988 15 8.99988H3.80027L8.70034 13.9C9.02675 14.2264 9.18996 14.3896 9.19316 14.5921V14.6079C9.18996 14.8104 9.02675 14.9736 8.70033 15.3C8.37391 15.6264 8.2107 15.7896 8.00823 15.7928H7.99243C7.78996 15.7896 7.62676 15.6264 7.30034 15.3L1.40014 9.39974L1.4 9.39988L0 7.99987Z" fill="#242626"/>
</svg>
