<svg width="24" height="24" viewBox="0 0 24 24" fill="none" xmlns="http://www.w3.org/2000/svg">
<path fill-rule="evenodd" clip-rule="evenodd" d="M5.90008 7.7865C6.55255 7.45713 7 6.78082 7 6C7 4.89543 6.10457 4 5 4C3.89543 4 3 4.89543 3 6C3 6.78088 3.44752 7.45723 4.10008 7.78658V14V16.2134C3.44752 16.5428 3 17.2191 3 18C3 19.1046 3.89543 20 5 20C6.10457 20 7 19.1046 7 18C7 17.2192 6.55255 16.5429 5.90008 16.2135V14C5.90008 13.3925 6.39256 12.9 7.00008 12.9H10.0001C10.3894 12.9 10.7609 12.8233 11.1001 12.6841V16.2134C10.4475 16.5428 10 17.2191 10 18C10 19.1046 10.8954 20 12 20C13.1046 20 14 19.1046 14 18C14 17.2262 13.5606 16.555 12.9176 16.2225L12.9396 13.9892C12.9455 13.3859 13.4363 12.9 14.0395 12.9H17.0001C18.6017 12.9 19.9001 11.6016 19.9001 10V7.7865C20.5526 7.45713 21 6.78082 21 6C21 4.89543 20.1046 4 19 4C17.8954 4 17 4.89543 17 6C17 6.78088 17.4475 7.45723 18.1001 7.78658V10C18.1001 10.6075 17.6076 11.1 17.0001 11.1H14.0395C13.6352 11.1 13.25 11.1828 12.9001 11.3325V10V7.7865C13.5526 7.45713 14 6.78082 14 6C14 4.89543 13.1046 4 12 4C10.8954 4 10 4.89543 10 6C10 6.78088 10.4475 7.45723 11.1001 7.78658V10C11.1001 10.6075 10.6076 11.1 10.0001 11.1H7.00008C6.61072 11.1 6.23929 11.1767 5.90008 11.3159V7.7865Z" fill="#242626"/>
</svg>