<svg width="24" height="24" viewBox="0 0 10 22" fill="none" xmlns="http://www.w3.org/2000/svg">
<g clip-path="url(#clip0)">
<path d="M7.00195 -0.000488281H8.50195C9.05424 -0.000488281 9.50195 0.447227 9.50195 0.999512V2.68244H7.00195V-0.000488281Z" fill="#242626"/>
<path d="M7.00195 4.21899C7.00195 3.66671 7.44967 3.21899 8.00195 3.21899H9.50195V5.90192H7.00195V4.21899Z" fill="#242626"/>
<path d="M7.00195 7.43848C7.00195 6.88619 7.44967 6.43848 8.00195 6.43848H9.50195V9.1214H7.00195V7.43848Z" fill="#242626"/>
<path d="M7.00195 10.658C7.00195 10.1057 7.44967 9.65796 8.00195 9.65796H9.50195V12.3409H7.00195V10.658Z" fill="#242626"/>
<path d="M7.00195 13.8774C7.00195 13.3252 7.44967 12.8774 8.00195 12.8774H9.50195V15.5604H7.00195V13.8774Z" fill="#242626"/>
<path d="M7.00195 17.0972C7.00195 16.5449 7.44967 16.0972 8.00195 16.0972H9.50195V18.7801H7.00195V17.0972Z" fill="#242626"/>
<path d="M7.00195 19.3167H9.50195V20.9996C9.50195 21.5519 9.05424 21.9996 8.50195 21.9996H7.00195V19.3167Z" fill="#242626"/>
<path d="M0.501953 0.999511C0.501953 0.447226 0.949668 -0.000488281 1.50195 -0.000488281H3.00195V2.68244H0.501953V0.999511Z" fill="#242626"/>
<path d="M0.501953 3.21899H2.00195C2.55424 3.21899 3.00195 3.66671 3.00195 4.21899V5.90192H0.501953V3.21899Z" fill="#242626"/>
<path d="M0.501953 6.43848H2.00195C2.55424 6.43848 3.00195 6.88619 3.00195 7.43848V9.1214H0.501953V6.43848Z" fill="#242626"/>
<path d="M0.501953 9.65796H2.00195C2.55424 9.65796 3.00195 10.1057 3.00195 10.658V12.3409H0.501953V9.65796Z" fill="#242626"/>
<path d="M0.501953 12.8774H2.00195C2.55424 12.8774 3.00195 13.3252 3.00195 13.8774V15.5604H0.501953V12.8774Z" fill="#242626"/>
<path d="M0.501953 16.0972H2.00195C2.55424 16.0972 3.00195 16.5449 3.00195 17.0972V18.7801H0.501953V16.0972Z" fill="#242626"/>
<path d="M0.501953 19.3167H3.00195V21.9996H1.50195C0.949668 21.9996 0.501953 21.5519 0.501953 20.9996V19.3167Z" fill="#242626"/>
<rect x="3.50195" y="-0.000488281" width="3" height="22" fill="#242626"/>
</g>
<defs>
<clipPath id="clip0">
<rect width="9" height="22" fill="white" transform="translate(0.501953 -0.000488281)"/>
</clipPath>
</defs>
</svg>
