<svg width="24" height="24" viewBox="0 0 24 24" fill="none" xmlns="http://www.w3.org/2000/svg">
<path fill-rule="evenodd" clip-rule="evenodd" d="M3.96254 20.933C5.04634 22.0168 6.80353 22.0168 7.88733 20.933C8.1306 20.6897 8.31926 20.4125 8.45333 20.1166C8.82389 19.2987 8.94097 18.3592 9.40294 17.5893C9.86259 16.8232 10.4145 16.1164 11.0462 15.4846L16.8165 9.71433C17.2399 9.29092 17.7136 8.92103 18.2271 8.61296C18.5341 8.42879 18.9127 8.44339 19.2538 8.55197C19.7589 8.71276 20.2914 8.70007 20.7712 8.47631C21.4794 8.14609 21.909 7.43271 21.9876 6.61052C21.9981 6.50046 21.8842 6.42627 21.784 6.47299L20.1287 7.24487C20.0801 7.26752 20.0231 7.26253 19.9792 7.2318L18.8086 6.41211C18.7647 6.38137 18.7405 6.32955 18.7452 6.27616L18.8697 4.85252C18.8744 4.79913 18.9072 4.75229 18.9558 4.72964L20.6111 3.95776C20.7113 3.91104 20.7277 3.77607 20.6366 3.71339C19.9563 3.24508 19.1336 3.11564 18.4255 3.44585C18.2902 3.50892 18.1651 3.58596 18.0507 3.67507C17.1925 4.3434 16.9569 5.54439 16.3973 6.47712C16.013 7.11761 15.5516 7.70856 15.0234 8.23672L9.41088 13.8493C8.77914 14.481 8.07231 15.0329 7.30622 15.4926C6.53627 15.9545 5.59678 16.0716 4.7789 16.4422C4.483 16.5762 4.20581 16.7649 3.96254 17.0082C2.87874 18.092 2.87874 19.8492 3.96254 20.933ZM7.86389 18.8335C7.90162 18.8843 7.90343 18.9533 7.86841 19.006L7.51066 19.5442C7.49843 19.5626 7.49041 19.5835 7.48719 19.6054L7.39289 20.2448C7.38366 20.3073 7.33615 20.3574 7.27412 20.3699L6.64056 20.4975C6.6189 20.5019 6.59846 20.511 6.58073 20.5242L6.06195 20.9096C6.01116 20.9473 5.94215 20.9491 5.88946 20.9141L5.35122 20.5564C5.33281 20.5441 5.31193 20.5361 5.29007 20.5329L4.6507 20.4386C4.58811 20.4294 4.53803 20.3819 4.52554 20.3198L4.39791 19.6863C4.39355 19.6646 4.38445 19.6442 4.37127 19.6264L3.98585 19.1077C3.94811 19.0569 3.94631 18.9879 3.98133 18.9352L4.33908 18.3969C4.35131 18.3785 4.35932 18.3577 4.36255 18.3358L4.45684 17.6964C4.46607 17.6338 4.51359 17.5838 4.57562 17.5713L5.20918 17.4436C5.23084 17.4393 5.25127 17.4302 5.26901 17.417L5.78779 17.0316C5.83858 16.9938 5.90758 16.992 5.96028 17.027L6.49852 17.3848C6.51692 17.397 6.5378 17.405 6.55966 17.4083L7.19904 17.5026C7.26163 17.5118 7.3117 17.5593 7.3242 17.6213L7.45182 18.2549C7.45619 18.2766 7.46528 18.297 7.47846 18.3147L7.86389 18.8335Z" fill="#242626"/>
</svg>