<svg width="45" height="56" viewBox="0 0 45 56" fill="none" xmlns="http://www.w3.org/2000/svg">
<path d="M14.0408 29.5781L25.7564 33.8192L19.3602 51.2975L14.5684 46.2639L7.64455 47.0564L14.0408 29.5781Z" fill="#242626"/>
<path d="M18.5532 37.9488L30.2689 33.7077L36.6651 51.186L29.7412 50.3935L24.9494 55.4271L18.5532 37.9488Z" fill="white"/>
<path d="M22.285 0.400024L26.0307 3.37095L30.6344 2.05184L32.9519 6.22228L37.7128 6.75581L38.2492 11.4909L42.4424 13.7958L41.1161 18.3746L44.1032 22.1L41.1161 25.8255L42.4424 30.4043L38.2492 32.7092L37.7128 37.4442L32.9519 37.9778L30.6344 42.1482L26.0307 40.8291L22.285 43.8L18.5392 40.8291L13.9355 42.1482L11.618 37.9778L6.8572 37.4442L6.32076 32.7092L2.12761 30.4043L3.4539 25.8255L0.466797 22.1L3.4539 18.3746L2.12761 13.7958L6.32076 11.4909L6.8572 6.75581L11.618 6.22228L13.9355 2.05184L18.5392 3.37095L22.285 0.400024Z" fill="#FFDD33"/>
<path d="M18.3889 29.85L31.6357 16.675L29.298 14.35L18.3889 25.2L14.4928 21.325L12.1552 23.65L18.3889 29.85Z" fill="#242626"/>
</svg>
