<svg width="14" height="14" viewBox="0 0 14 14" fill="none" xmlns="http://www.w3.org/2000/svg">
<circle cx="7" cy="7" r="6.5" stroke="#8A8E90"/>
<path d="M8.62956 5.744C8.62956 5.92533 8.60823 6.08533 8.56556 6.224C8.52823 6.36267 8.47223 6.488 8.39756 6.6C8.32823 6.70667 8.24556 6.80267 8.14956 6.888C8.0589 6.97333 7.96023 7.05333 7.85356 7.128C7.74156 7.20267 7.63223 7.27467 7.52556 7.344C7.4189 7.41333 7.32023 7.48533 7.22956 7.56C7.14423 7.62933 7.0749 7.70933 7.02156 7.8C6.96823 7.88533 6.94156 7.984 6.94156 8.096V8.296H6.06956V8.104C6.06956 7.88 6.0989 7.688 6.15756 7.528C6.22156 7.368 6.2989 7.232 6.38956 7.12C6.48556 7.008 6.58956 6.91467 6.70156 6.84C6.81356 6.76 6.9229 6.68533 7.02956 6.616C7.10956 6.56267 7.18423 6.50667 7.25356 6.448C7.32823 6.38933 7.38956 6.328 7.43756 6.264C7.4909 6.19467 7.53356 6.11733 7.56556 6.032C7.59756 5.94667 7.61356 5.85067 7.61356 5.744C7.61356 5.52 7.5389 5.34133 7.38956 5.208C7.24556 5.06933 7.00023 5 6.65356 5C6.41356 5 6.2029 5.02667 6.02156 5.08C5.84556 5.13333 5.71223 5.18667 5.62156 5.24L5.42956 4.464C5.53623 4.41067 5.6909 4.352 5.89356 4.288C6.10156 4.224 6.36823 4.192 6.69356 4.192C7.34423 4.192 7.82956 4.33333 8.14956 4.616C8.46956 4.89867 8.62956 5.27467 8.62956 5.744ZM6.52556 10.056C6.4349 10.056 6.34956 10.0373 6.26956 10C6.18956 9.968 6.12023 9.92267 6.06156 9.864C6.0029 9.80533 5.95756 9.73867 5.92556 9.664C5.89356 9.584 5.87756 9.50133 5.87756 9.416C5.87756 9.24 5.9389 9.09067 6.06156 8.968C6.18423 8.84533 6.3389 8.784 6.52556 8.784C6.71223 8.784 6.8669 8.84533 6.98956 8.968C7.11756 9.09067 7.18156 9.24 7.18156 9.416C7.18156 9.50133 7.1629 9.584 7.12556 9.664C7.09356 9.73867 7.04823 9.80533 6.98956 9.864C6.9309 9.92267 6.86156 9.968 6.78156 10C6.70156 10.0373 6.61623 10.056 6.52556 10.056Z" fill="#8A8E90"/>
</svg>
