<svg width="6" height="18" viewBox="0 0 6 18" fill="none" xmlns="http://www.w3.org/2000/svg">
<path d="M1.85409 3.45497L0.0124465 14.0894C-0.0284789 14.3377 0.032909 14.6066 0.176148 14.8135L2.26334 17.6273C2.63167 18.1238 3.36833 18.1238 3.73666 17.6273L5.82385 14.8135C5.96709 14.6066 6.02848 14.3377 5.98755 14.0894L4.14591 3.45497C4.06406 2.9998 3.69573 2.68945 3.24555 2.68945H2.75445C2.32473 2.68945 1.93594 3.02049 1.85409 3.45497Z" fill="black"/>
<path d="M3.7571 1.86206H2.30424C1.79268 1.86206 1.38342 1.44827 1.38342 0.931029C1.38342 0.413791 1.79268 0 2.30424 0H3.7571C4.26866 0 4.67792 0.413791 4.67792 0.931029C4.67792 1.44827 4.26866 1.86206 3.7571 1.86206Z" fill="black"/>
</svg>
