<?xml version="1.0" encoding="UTF-8"?>
<svg width="197px" height="36px" viewBox="0 0 197 36" version="1.1" xmlns="http://www.w3.org/2000/svg" xmlns:xlink="http://www.w3.org/1999/xlink">
    <!-- Generator: Sketch 52.5 (67469) - http://www.bohemiancoding.com/sketch -->
    <title>Лого с бета_1 вариант</title>
    <desc>Created with Sketch.</desc>
    <g id="Page-1" stroke="none" stroke-width="1" fill="none" fill-rule="evenodd">
        <g id="Лого-с-бета_1-вариант" transform="translate(-95.000000, -128.000000)">
            <g transform="translate(95.000000, 128.000000)">
                <path d="M11,18.64 L8.44,18.64 L3.56,29.6 L2.04281037e-14,29.6 L5.36,17.88 C2.84,16.6 1.16,14.28 1.16,10 C1.16,4 4.96,1 9.48,1 L14.08,1 L14.08,29.6 L11,29.6 L11,18.64 Z M11,16.08 L11,3.6 L9.36,3.6 C6.88,3.6 4.48,5.24 4.48,10 C4.48,14.6 6.68,16.08 9.36,16.08 L11,16.08 Z" id="Combined-Shape" fill="#FF0000" fill-rule="nonzero"></path>
                <path d="M44.955,27.04 L44.955,33.56 L42.155,33.56 L42.155,29.6 L33.515,29.6 L33.515,33.56 L30.715,33.56 L30.715,27.04 L31.955,27.04 C33.795,22.76 33.995,16.52 33.995,11.16 L33.995,9.44 L43.355,9.44 L43.355,27.04 L44.955,27.04 Z M40.275,27.04 L40.275,11.96 L36.795,11.96 L36.795,12.32 C36.795,16.56 36.595,22.76 34.915,27.04 L40.275,27.04 Z" id="Combined-Shape" fill="#000000" fill-rule="nonzero"></path>
                <path d="M58.515,28.24 C57.235,29.24 55.555,29.88 53.555,29.88 C49.395,29.88 46.835,26.56 46.835,20.36 C46.835,13.88 48.635,9.16 52.915,9.16 C56.275,9.16 58.475,11.68 58.475,18.52 L58.475,20.24 L50.075,20.24 C50.075,24.8 51.355,27.2 53.835,27.2 C55.595,27.2 56.995,26.4 57.795,25.84 L58.515,28.24 Z M52.915,11.72 C50.995,11.72 50.315,14.08 50.115,17.68 L55.275,17.68 C55.275,14.24 54.715,11.72 52.915,11.72 Z" id="Combined-Shape" fill="#000000" fill-rule="nonzero"></path>
                <polygon id="Path" fill="#000000" fill-rule="nonzero" points="25.835 9.44 25.835 18 21.195 18 21.195 9.44 18.075 9.44 18.075 29.6 21.195 29.6 21.195 20.56 25.835 20.56 25.835 29.6 28.915 29.6 28.915 9.44"></polygon>
                <polygon id="Path" fill="#000000" fill-rule="nonzero" points="70.115 29.6 73.515 29.6 67.795 18.92 72.795 9.44 69.635 9.44 64.795 18.76 64.795 9.44 61.675 9.44 61.675 29.6 64.795 29.6 64.795 19.56"></polygon>
                <path d="M80.835,29.88 C82.675,29.88 83.955,29.28 85.035,28.36 L84.315,26.04 C83.595,26.68 82.435,27.28 80.915,27.28 C78.395,27.28 77.195,24.4 77.195,19.36 C77.195,14.28 78.795,11.76 81.035,11.76 C82.315,11.76 83.515,12.44 84.355,13.16 L84.795,10.2 C83.915,9.64 82.875,9.16 81.075,9.16 C76.355,9.16 73.915,13.2 73.915,19.52 C73.915,26.4 76.515,29.88 80.835,29.88 Z" id="Path" fill="#000000" fill-rule="nonzero"></path>
                <polygon id="Path" fill="#000000" fill-rule="nonzero" points="104.324 2.64 104.324 1 94.644 1 94.644 29.6 96.644 29.6 96.644 2.64"></polygon>
                <path d="M111.794,29.6 C111.634,29.08 111.434,28.32 111.314,26.88 C110.354,28.8 108.914,30 106.914,30 C104.194,30 102.314,27.84 102.314,24.16 C102.314,19.84 104.674,17.6 109.034,17.6 L111.234,17.6 L111.234,15.08 C111.234,12 110.074,10.68 107.874,10.68 C106.154,10.68 104.594,11.48 103.634,12.88 L103.114,11.08 C103.914,10.04 105.594,9.04 107.874,9.04 C111.194,9.04 113.074,10.88 113.074,14.88 L113.074,25.88 C113.074,27.28 113.274,28.84 113.514,29.6 L111.794,29.6 Z M107.314,28.48 C109.194,28.48 110.514,26.68 111.234,24.52 L111.234,18.96 L109.074,18.96 C105.754,18.96 104.154,20.48 104.154,24 C104.154,26.84 105.394,28.48 107.314,28.48 Z" id="Combined-Shape" fill="#000000" fill-rule="nonzero"></path>
                <path d="M122.858,29.96 C121.338,29.96 120.018,29.2 119.258,28.2 L119.258,35.84 L117.378,35.84 L117.378,9.44 L119.018,9.44 L119.178,12.76 C120.058,10.84 121.538,9.04 123.778,9.04 C127.138,9.04 129.098,13.08 129.098,18.92 C129.098,26.32 126.618,29.96 122.858,29.96 Z M122.978,28.48 C125.538,28.48 127.218,25.44 127.218,19.08 C127.218,13.8 125.778,10.68 123.458,10.68 C121.658,10.68 120.138,12.6 119.258,14.76 L119.258,26.04 C120.058,27.68 121.178,28.48 122.978,28.48 Z" id="Combined-Shape" fill="#000000" fill-rule="nonzero"></path>
                <path d="M141.13,29.6 C140.97,29.08 140.77,28.32 140.65,26.88 C139.69,28.8 138.25,30 136.25,30 C133.53,30 131.65,27.84 131.65,24.16 C131.65,19.84 134.01,17.6 138.37,17.6 L140.57,17.6 L140.57,15.08 C140.57,12 139.41,10.68 137.21,10.68 C135.49,10.68 133.93,11.48 132.97,12.88 L132.45,11.08 C133.25,10.04 134.93,9.04 137.21,9.04 C140.53,9.04 142.41,10.88 142.41,14.88 L142.41,25.88 C142.41,27.28 142.61,28.84 142.85,29.6 L141.13,29.6 Z M136.65,28.48 C138.53,28.48 139.85,26.68 140.57,24.52 L140.57,18.96 L138.41,18.96 C135.09,18.96 133.49,20.48 133.49,24 C133.49,26.84 134.73,28.48 136.65,28.48 Z" id="Combined-Shape" fill="#000000" fill-rule="nonzero"></path>
                <polygon id="Path" fill="#000000" fill-rule="nonzero" points="153.113 19.16 153.113 29.6 154.993 29.6 154.993 19.16 161.233 29.6 163.273 29.6 156.873 18.76 162.793 9.44 160.993 9.44 154.993 18.92 154.993 9.44 153.113 9.44 153.113 18.92 147.113 9.44 145.233 9.44 151.233 18.92 144.913 29.6 146.873 29.6"></polygon>
                <path d="M172.345882,12.16 C171.705879,12.16 171.151218,12.0186681 170.681882,11.736 C170.212547,11.4533319 169.839217,11.0560026 169.561882,10.544 L169.417882,12 L168.297882,12 L168.297882,0.4 L169.657882,0.4 L169.657882,5.248 C169.935217,4.79999776 170.303213,4.44533464 170.761882,4.184 C171.220551,3.92266536 171.769879,3.792 172.409882,3.792 C172.879218,3.792 173.327214,3.87733248 173.753882,4.048 C174.180551,4.21866752 174.559214,4.47466496 174.889882,4.816 C175.220551,5.15733504 175.481881,5.59199736 175.673882,6.12 C175.865883,6.64800264 175.961882,7.26399648 175.961882,7.968 C175.961882,8.67200352 175.863217,9.28799736 175.665882,9.816 C175.468548,10.3440026 175.201884,10.7813316 174.865882,11.128 C174.529881,11.4746684 174.145885,11.7333325 173.713882,11.904 C173.28188,12.0746675 172.825885,12.16 172.345882,12.16 Z M172.137882,11.184 C172.489884,11.184 172.815214,11.1226673 173.113882,11 C173.412551,10.8773327 173.668548,10.6853346 173.881882,10.424 C174.095217,10.1626654 174.260548,9.82933536 174.377882,9.424 C174.495216,9.01866464 174.553882,8.53333616 174.553882,7.968 C174.553882,6.85866112 174.329885,6.04533592 173.881882,5.528 C173.43388,5.01066408 172.852553,4.752 172.137882,4.752 C171.785881,4.752 171.449884,4.81333272 171.129882,4.936 C170.809881,5.05866728 170.529884,5.25066536 170.289882,5.512 C170.049881,5.77333464 169.86055,6.10666464 169.721882,6.512 C169.583215,6.91733536 169.513882,7.40266384 169.513882,7.968 C169.513882,8.54400288 169.583215,9.03466464 169.721882,9.44 C169.86055,9.84533536 170.049881,10.1759987 170.289882,10.432 C170.529884,10.6880013 170.809881,10.8773327 171.129882,11 C171.449884,11.1226673 171.785881,11.184 172.137882,11.184 Z M180.641412,4.768 C180.065409,4.768 179.572081,4.97066464 179.161412,5.376 C178.750743,5.78133536 178.492079,6.39466256 178.385412,7.216 L182.465412,7.216 C182.529412,6.38399584 182.38808,5.768002 182.041412,5.368 C181.694743,4.967998 181.228081,4.768 180.641412,4.768 Z M183.601412,11.312 C183.31341,11.5573346 182.940081,11.7599992 182.481412,11.92 C182.022743,12.0800008 181.500081,12.16 180.913412,12.16 C179.633405,12.16 178.652082,11.7946703 177.969412,11.064 C177.286742,10.3333297 176.945412,9.30134 176.945412,7.968 C176.945412,7.31733008 177.041411,6.73333592 177.233412,6.216 C177.425413,5.69866408 177.68941,5.25866848 178.025412,4.896 C178.361413,4.53333152 178.756076,4.2586676 179.209412,4.072 C179.662747,3.8853324 180.150743,3.792 180.673412,3.792 C181.217415,3.792 181.70541,3.8853324 182.137412,4.072 C182.569414,4.2586676 182.926744,4.53599816 183.209412,4.904 C183.49208,5.27200184 183.684078,5.73066392 183.785412,6.28 C183.886746,6.82933608 183.884079,7.46132976 183.777412,8.176 L178.337412,8.176 C178.401412,10.1066763 179.302736,11.072 181.041412,11.072 C181.500081,11.072 181.910743,11.0026674 182.273412,10.864 C182.63608,10.7253326 182.972077,10.5493344 183.281412,10.336 L183.601412,11.312 Z M189.240941,11.856 C189.070274,11.9413338 188.862276,12.013333 188.616941,12.072 C188.371607,12.130667 188.099609,12.16 187.800941,12.16 C187.043604,12.16 186.48361,11.960002 186.120941,11.56 C185.758273,11.159998 185.576941,10.5760038 185.576941,9.808 L185.576941,4.944 L184.616941,4.944 L184.616941,3.952 L185.576941,3.952 L185.576941,2.416 L186.952941,2.416 L186.952941,3.952 L188.968941,3.952 L188.968941,4.944 L186.952941,4.944 L186.952941,9.744 C186.952941,10.1813355 187.022274,10.5093322 187.160941,10.728 C187.299609,10.9466678 187.555606,11.056 187.928941,11.056 C188.110275,11.056 188.29694,11.0346669 188.488941,10.992 C188.680942,10.9493331 188.851607,10.890667 189.000941,10.816 L189.240941,11.856 Z M192.864471,11.168 C193.429807,11.168 193.880469,11.0266681 194.216471,10.744 C194.552472,10.4613319 194.80047,10.1386685 194.960471,9.776 L194.960471,8.256 L194.256471,8.256 C193.221799,8.256 192.477806,8.36533224 192.024471,8.584 C191.571135,8.80266776 191.344471,9.22133024 191.344471,9.84 C191.344471,10.2773355 191.496469,10.6079989 191.800471,10.832 C192.104472,11.0560011 192.459135,11.168 192.864471,11.168 Z M195.216471,12 C195.173804,11.8506659 195.136471,11.6746677 195.104471,11.472 C195.07247,11.2693323 195.045804,11.0506678 195.024471,10.816 C194.92847,10.9760008 194.813805,11.1359992 194.680471,11.296 C194.547137,11.4560008 194.384472,11.5999994 194.192471,11.728 C194.00047,11.8560006 193.771139,11.9599996 193.504471,12.04 C193.237803,12.1200004 192.928472,12.16 192.576471,12.16 C192.224469,12.16 191.893805,12.1120005 191.584471,12.016 C191.275136,11.9199995 191.000472,11.776001 190.760471,11.584 C190.520469,11.391999 190.331138,11.1573347 190.192471,10.88 C190.053803,10.6026653 189.984471,10.2826685 189.984471,9.92 C189.984471,9.04532896 190.3338,8.408002 191.032471,8.008 C191.731141,7.607998 192.76313,7.408 194.128471,7.408 L194.960471,7.408 L194.960471,6.752 C194.960471,6.10133008 194.821805,5.6160016 194.544471,5.296 C194.267136,4.9759984 193.776474,4.816 193.072471,4.816 C192.592468,4.816 192.157806,4.90399912 191.768471,5.08 C191.379135,5.25600088 191.035139,5.46666544 190.736471,5.712 L190.368471,4.592 C190.496471,4.49599952 190.661803,4.40000048 190.864471,4.304 C191.067138,4.20799952 191.296469,4.12266704 191.552471,4.048 C191.808472,3.97333296 192.080469,3.91200024 192.368471,3.864 C192.656472,3.81599976 192.949802,3.792 193.248471,3.792 C194.261809,3.792 195.027135,4.01333112 195.544471,4.456 C196.061807,4.89866888 196.320471,5.5999952 196.320471,6.56 L196.320471,10.704 C196.320471,10.8853342 196.331137,11.1119986 196.352471,11.384 C196.373804,11.6560014 196.40047,11.8613326 196.432471,12 L195.216471,12 Z" id="beta" fill="#000000"></path>
            </g>
        </g>
    </g>
</svg>