<svg width="54" height="46" viewBox="0 0 54 46" xmlns="http://www.w3.org/2000/svg"><title>Page 1</title><g fill="none" fill-rule="evenodd"><g fill="#FFF"><path d="M51.195 42.884C50.535 43.624 49.46 44 48 44H6c-1.46 0-2.535-.376-3.196-1.116C1.817 41.778 2 40.011 2 40v-2l-.003-23.078c-.002-.017-.113-1.719.934-2.844C3.596 11.363 4.63 11 6.001 11h7l.1-.006c.105-.01 2.585-.288 3.781-2.523.927-1.733 2.932-4.888 2.93-4.888C19.86 3.518 20.99 2 23 2h8c2.01 0 3.14 1.518 3.188 1.583-.002 0 2.003 3.155 2.93 4.888 1.196 2.235 3.675 2.513 3.78 2.523L41 11h7c1.371 0 2.403.363 3.07 1.078 1.045 1.125.934 2.827.933 2.844L52 38v2c.001.011.183 1.778-.805 2.884m1.355-32.149C51.491 9.585 49.96 9 48 9h-6.936c-.242-.037-1.549-.288-2.182-1.472-.966-1.804-2.955-4.933-3.039-5.065C35.746 2.323 34.065 0 31 0h-8c-3.066 0-4.746 2.323-4.844 2.463-.084.132-2.073 3.261-3.038 5.065-.633 1.184-1.94 1.435-2.183 1.472H6c-1.96 0-3.492.584-4.55 1.735C-.19 12.516.026 14.702 0 15v24.95c.041.62-.154 2.605 1.295 4.246C2.351 45.393 3.935 46 6 46h42c2.065 0 3.648-.607 4.704-1.804 1.45-1.64 1.254-3.626 1.296-4.247V15c-.028-.298.19-2.484-1.45-4.265"/><path d="M27 16c-5.514 0-10 4.486-10 10s4.486 10 10 10 10-4.486 10-10-4.486-10-10-10m0 22c-6.617 0-12-5.383-12-12s5.383-12 12-12 12 5.383 12 12-5.383 12-12 12"/></g></g></svg>