<svg width="48" height="48" viewBox="0 0 48 48" fill="none" xmlns="http://www.w3.org/2000/svg">
<path fill-rule="evenodd" clip-rule="evenodd" d="M11.9931 16.0686C10.6414 16.2865 10.8933 17.6268 11.4396 17.6748C15.2145 18.0068 18.5107 19.4192 21.3281 21.9121C21.4534 22.0229 21.6339 22.0454 21.7825 21.9686C21.9813 21.8658 22.0591 21.6215 21.9564 21.4227C20.2958 18.2102 15.3142 15.5331 11.9931 16.0686ZM36.5604 17.6748C37.1068 17.6268 37.3586 16.2865 36.0069 16.0686C32.6858 15.5331 27.7042 18.2102 26.0436 21.4227C25.9409 21.6215 26.0187 21.8658 26.2175 21.9686C26.3661 22.0454 26.5466 22.0229 26.6719 21.9121C29.4893 19.4192 32.7855 18.0068 36.5604 17.6748ZM16 29C17.6569 29 19 27.2091 19 25C19 22.7909 17.6569 21 16 21C14.3431 21 13 22.7909 13 25C13 27.2091 14.3431 29 16 29ZM17 37.564C19 34.5213 21.3333 33 24 33C26.6667 33 28.9657 34.5213 30.8971 37.564C30.9766 37.7231 30.9121 37.9165 30.7531 37.9961C30.6565 38.0444 30.5422 38.0411 30.4486 37.9873C28.143 36.6624 25.9934 36 24 36C22.0017 36 19.8199 36.6656 17.4546 37.9969C17.2966 38.0858 17.0964 38.0298 17.0075 37.8718C16.9541 37.7768 16.9512 37.6615 17 37.564ZM35 25C35 27.2091 33.6569 29 32 29C30.3431 29 29 27.2091 29 25C29 22.7909 30.3431 21 32 21C33.6569 21 35 22.7909 35 25Z" fill="#21201F"/>
</svg>
