<svg width="48" height="48" viewBox="0 0 48 48" fill="none" xmlns="http://www.w3.org/2000/svg">
<path fill-rule="evenodd" clip-rule="evenodd" d="M9.02902 29C9.19743 27.4843 11.5273 31 24.029 31C36.5307 31 38.8606 27.4841 39.029 29C39.529 33.5 33.529 42 24.029 42C14.529 42 8.52902 33.5 9.02902 29Z" fill="black"/>
<path d="M16.029 23C17.6859 23 19.029 21.2091 19.029 19C19.029 16.7909 17.6859 15 16.029 15C14.3722 15 13.029 16.7909 13.029 19C13.029 21.2091 14.3722 23 16.029 23Z" fill="black"/>
<path d="M32.029 23C33.6859 23 35.029 21.2091 35.029 19C35.029 16.7909 33.6859 15 32.029 15C30.3722 15 29.029 16.7909 29.029 19C29.029 21.2091 30.3722 23 32.029 23Z" fill="black"/>
</svg>
