<svg width="48" height="48" viewBox="0 0 48 48" fill="none" xmlns="http://www.w3.org/2000/svg">
<path fill-rule="evenodd" clip-rule="evenodd" d="M13 32C16 36.5 22 37 24 37C26 37 32 36.5 35 32C32.3333 34 28.6667 35 24 35C19.3333 35 15.6667 34 13 32Z" fill="#21201F"/>
<path fill-rule="evenodd" clip-rule="evenodd" d="M16.4964 15C13.5816 15 12.0828 17.8321 12.0001 23.4963C11.996 23.7705 12.215 23.9959 12.4892 23.9999C12.4916 24 12.494 24 12.4964 24C12.7947 24 13.0651 23.8247 13.1868 23.5525C14.0969 21.5175 15.2001 20.5 16.4964 20.5C17.7422 20.5 18.8426 21.5185 19.7974 23.5556C19.9245 23.8268 20.1969 24 20.4964 24C20.7706 24 20.9928 23.7777 20.9928 23.5036C20.9928 23.5012 20.9928 23.4987 20.9928 23.4963C20.9101 17.8321 19.4113 15 16.4964 15Z" fill="#21201F"/>
<path fill-rule="evenodd" clip-rule="evenodd" d="M31.4964 15C28.5816 15 27.0828 17.8321 27.0001 23.4963C26.996 23.7705 27.215 23.9959 27.4892 23.9999C27.4916 24 27.494 24 27.4964 24C27.7947 24 28.0651 23.8247 28.1868 23.5525C29.0969 21.5175 30.2001 20.5 31.4964 20.5C32.7422 20.5 33.8426 21.5185 34.7974 23.5556C34.9245 23.8268 35.1969 24 35.4964 24C35.7706 24 35.9928 23.7777 35.9928 23.5036C35.9928 23.5012 35.9928 23.4987 35.9928 23.4963C35.9101 17.8321 34.4113 15 31.4964 15Z" fill="#21201F"/>
</svg>
