<svg width="48" height="48" viewBox="0 0 48 48" fill="none" xmlns="http://www.w3.org/2000/svg">
<path fill-rule="evenodd" clip-rule="evenodd" d="M16 24C17.6569 24 19 21.9853 19 19.5C19 17.0147 17.6569 15 16 15C14.3431 15 13 17.0147 13 19.5C13 21.9853 14.3431 24 16 24ZM13 36C16 31.5 22 31 24 31C26 31 32 31.5 35 36C31.6667 34 28 33 24 33C20 33 16.3333 34 13 36ZM35 19.5C35 21.9853 33.6569 24 32 24C30.3431 24 29 21.9853 29 19.5C29 17.0147 30.3431 15 32 15C33.6569 15 35 17.0147 35 19.5Z" fill="#21201F"/>
</svg>
