<svg width="48" height="48" viewBox="0 0 48 48" fill="none" xmlns="http://www.w3.org/2000/svg">
<path fill-rule="evenodd" clip-rule="evenodd" d="M17 22C18.6569 22 20 20.6569 20 19C20 17.3431 18.6569 16 17 16C15.3432 16 14 17.3431 14 19C14 20.6569 15.3432 22 17 22ZM12 32.8929L12 32.5002C12 32.2241 12.2239 32.0002 12.5 32.0002H12.5003C15.2896 32.0015 19.1611 32.0021 24.1147 32.0021H35.5C35.7762 32.0021 36 32.226 36 32.5021L36.0001 32.8996C36.0001 33.1495 35.8156 33.3611 35.5679 33.395C32.6231 33.7985 28.8054 34.0002 24.1147 34.0002C19.4144 34.0002 15.521 33.7963 12.4345 33.3886C12.1859 33.3557 12 33.1437 12 32.8929ZM34 19C34 20.6569 32.6569 22 31 22C29.3432 22 28 20.6569 28 19C28 17.3431 29.3432 16 31 16C32.6569 16 34 17.3431 34 19Z" fill="black"/>
</svg>
